
<svg  viewBox="0 0 143 43" fill="none" xmlns="http://www.w3.org/2000/svg">
<rect x="0.6" y="0.6" width="141.8" height="40.8" rx="6.4" fill="#161616" stroke="#262626" stroke-width="1.2"/>
<path d="M21.9432 18.6482H20.1705C20.1023 18.2694 19.9754 17.9361 19.7898 17.6482C19.6042 17.3603 19.3769 17.116 19.108 16.9153C18.839 16.7145 18.5379 16.563 18.2045 16.4607C17.875 16.3584 17.5246 16.3073 17.1534 16.3073C16.483 16.3073 15.8826 16.4759 15.3523 16.813C14.8258 17.1501 14.4091 17.6444 14.1023 18.2959C13.7992 18.9475 13.6477 19.7429 13.6477 20.6823C13.6477 21.6293 13.7992 22.4285 14.1023 23.08C14.4091 23.7315 14.8277 24.224 15.358 24.5573C15.8883 24.8906 16.4848 25.0573 17.1477 25.0573C17.5152 25.0573 17.8636 25.0081 18.1932 24.9096C18.5265 24.8073 18.8277 24.6577 19.0966 24.4607C19.3655 24.2637 19.5928 24.0232 19.7784 23.7391C19.9678 23.4512 20.0985 23.1217 20.1705 22.7505L21.9432 22.7562C21.8485 23.3281 21.6648 23.8547 21.392 24.3357C21.1231 24.813 20.7765 25.2259 20.3523 25.5744C19.9318 25.919 19.4508 26.1861 18.9091 26.3755C18.3674 26.5649 17.7765 26.6596 17.1364 26.6596C16.1288 26.6596 15.2311 26.4209 14.4432 25.9437C13.6553 25.4626 13.0341 24.7751 12.5795 23.8812C12.1288 22.9872 11.9034 21.9209 11.9034 20.6823C11.9034 19.4399 12.1307 18.3736 12.5852 17.4834C13.0398 16.5895 13.661 15.9039 14.4489 15.4266C15.2367 14.9456 16.1326 14.705 17.1364 14.705C17.7538 14.705 18.3295 14.794 18.8636 14.9721C19.4015 15.1463 19.8845 15.4039 20.3125 15.7448C20.7405 16.0819 21.0947 16.4948 21.375 16.9834C21.6553 17.4683 21.8447 18.0232 21.9432 18.6482ZM27.5838 26.6766C26.7656 26.6766 26.0516 26.4891 25.4418 26.1141C24.8319 25.7391 24.3584 25.2145 24.0213 24.5403C23.6842 23.866 23.5156 23.0781 23.5156 22.1766C23.5156 21.2713 23.6842 20.4797 24.0213 19.8016C24.3584 19.1236 24.8319 18.5971 25.4418 18.2221C26.0516 17.8471 26.7656 17.6596 27.5838 17.6596C28.402 17.6596 29.116 17.8471 29.7259 18.2221C30.3357 18.5971 30.8092 19.1236 31.1463 19.8016C31.4834 20.4797 31.652 21.2713 31.652 22.1766C31.652 23.0781 31.4834 23.866 31.1463 24.5403C30.8092 25.2145 30.3357 25.7391 29.7259 26.1141C29.116 26.4891 28.402 26.6766 27.5838 26.6766ZM27.5895 25.2505C28.1198 25.2505 28.5592 25.1103 28.9077 24.83C29.2562 24.5497 29.5137 24.1766 29.6804 23.7107C29.8509 23.2448 29.9361 22.7315 29.9361 22.1709C29.9361 21.6141 29.8509 21.1028 29.6804 20.6369C29.5137 20.1672 29.2562 19.7903 28.9077 19.5062C28.5592 19.2221 28.1198 19.08 27.5895 19.08C27.0554 19.08 26.6122 19.2221 26.2599 19.5062C25.9115 19.7903 25.652 20.1672 25.4815 20.6369C25.3149 21.1028 25.2315 21.6141 25.2315 22.1709C25.2315 22.7315 25.3149 23.2448 25.4815 23.7107C25.652 24.1766 25.9115 24.5497 26.2599 24.83C26.6122 25.1103 27.0554 25.2505 27.5895 25.2505ZM33.5483 29.7732V17.7732H35.2074V19.188H35.3494C35.4479 19.0062 35.59 18.7959 35.7756 18.5573C35.9612 18.3187 36.2188 18.1103 36.5483 17.9323C36.8778 17.7505 37.3134 17.6596 37.8551 17.6596C38.5597 17.6596 39.1884 17.8376 39.7415 18.1937C40.2945 18.5497 40.7282 19.063 41.0426 19.7334C41.3608 20.4039 41.5199 21.2107 41.5199 22.1539C41.5199 23.0971 41.3627 23.9058 41.0483 24.58C40.7339 25.2505 40.3021 25.7675 39.7528 26.1312C39.2036 26.491 38.5767 26.6709 37.8722 26.6709C37.3419 26.6709 36.9081 26.5819 36.571 26.4039C36.2377 26.2259 35.9763 26.0175 35.7869 25.7789C35.5975 25.5403 35.4517 25.3281 35.3494 25.1425H35.2472V29.7732H33.5483ZM35.2131 22.1369C35.2131 22.7505 35.3021 23.2884 35.4801 23.7505C35.6581 24.2126 35.9157 24.5744 36.2528 24.8357C36.59 25.0933 37.0028 25.2221 37.4915 25.2221C37.9991 25.2221 38.4233 25.0876 38.7642 24.8187C39.1051 24.5459 39.3627 24.1766 39.5369 23.7107C39.715 23.2448 39.804 22.7202 39.804 22.1369C39.804 21.5611 39.7169 21.044 39.5426 20.5857C39.3722 20.1274 39.1146 19.7656 38.7699 19.5005C38.429 19.2353 38.0028 19.1028 37.4915 19.1028C36.9991 19.1028 36.5824 19.2297 36.2415 19.4834C35.9044 19.7372 35.6487 20.0914 35.4744 20.5459C35.3002 21.0005 35.2131 21.5308 35.2131 22.1369ZM44.2003 29.7732C43.9465 29.7732 43.7154 29.7524 43.5071 29.7107C43.2988 29.6728 43.1435 29.6312 43.0412 29.5857L43.4503 28.1937C43.7609 28.277 44.0374 28.313 44.2798 28.3016C44.5223 28.2903 44.7363 28.1994 44.9219 28.0289C45.1113 27.8584 45.2779 27.58 45.4219 27.1937L45.6321 26.6141L42.4389 17.7732H44.2571L46.4673 24.5459H46.5582L48.7685 17.7732H50.5923L46.9957 27.6653C46.8291 28.1198 46.617 28.5043 46.3594 28.8187C46.1018 29.1369 45.795 29.3755 45.4389 29.5346C45.0829 29.6937 44.67 29.7732 44.2003 29.7732ZM56.5597 26.5005V14.8641H63.8551V16.3755H58.3153V19.9209H63.4744V21.4266H58.3153V24.9891H63.9233V26.5005H56.5597ZM66.0639 26.5005V17.7732H67.6946V19.1937H67.8026C67.9844 18.7126 68.2817 18.3376 68.6946 18.0687C69.1075 17.7959 69.6018 17.6596 70.1776 17.6596C70.7609 17.6596 71.2495 17.7959 71.6435 18.0687C72.0412 18.3414 72.3348 18.7164 72.5241 19.1937H72.6151C72.8234 18.7278 73.1548 18.3565 73.6094 18.08C74.0639 17.7997 74.6056 17.6596 75.2344 17.6596C76.026 17.6596 76.6719 17.9077 77.1719 18.4039C77.6757 18.9001 77.9276 19.6482 77.9276 20.6482V26.5005H76.2287V20.8073C76.2287 20.2164 76.0677 19.7884 75.7457 19.5232C75.4238 19.2581 75.0393 19.1255 74.5923 19.1255C74.0393 19.1255 73.6094 19.2959 73.3026 19.6369C72.9957 19.974 72.8423 20.4077 72.8423 20.938V26.5005H71.1491V20.6994C71.1491 20.2259 71.0014 19.8452 70.706 19.5573C70.4105 19.2694 70.026 19.1255 69.5526 19.1255C69.2306 19.1255 68.9332 19.2107 68.6605 19.3812C68.3916 19.5478 68.1738 19.7808 68.0071 20.08C67.8442 20.3793 67.7628 20.7259 67.7628 21.1198V26.5005H66.0639ZM82.7443 26.6937C82.1913 26.6937 81.6913 26.5914 81.2443 26.3869C80.7973 26.1785 80.4432 25.8774 80.1818 25.4834C79.9242 25.0895 79.7955 24.6065 79.7955 24.0346C79.7955 23.5422 79.8902 23.1369 80.0795 22.8187C80.2689 22.5005 80.5246 22.2486 80.8466 22.063C81.1686 21.8774 81.5284 21.7372 81.9261 21.6425C82.3239 21.5478 82.7292 21.4759 83.142 21.4266C83.6648 21.366 84.089 21.3168 84.4148 21.2789C84.7405 21.2372 84.9773 21.1709 85.125 21.08C85.2727 20.9891 85.3466 20.8414 85.3466 20.6369V20.5971C85.3466 20.1009 85.2064 19.7164 84.9261 19.4437C84.6496 19.1709 84.2367 19.0346 83.6875 19.0346C83.1155 19.0346 82.6648 19.1615 82.3352 19.4153C82.0095 19.6653 81.7841 19.9437 81.6591 20.2505L80.0625 19.8869C80.2519 19.3565 80.5284 18.9285 80.892 18.6028C81.2595 18.2732 81.6818 18.0346 82.1591 17.8869C82.6364 17.7353 83.1383 17.6596 83.6648 17.6596C84.0133 17.6596 84.3826 17.7012 84.7727 17.7846C85.1667 17.8641 85.5341 18.0119 85.875 18.2278C86.2197 18.4437 86.5019 18.7524 86.7216 19.1539C86.9413 19.5516 87.0511 20.0687 87.0511 20.705V26.5005H85.392V25.3073H85.3239C85.214 25.527 85.0492 25.7429 84.8295 25.955C84.6098 26.1672 84.3277 26.3433 83.983 26.4834C83.6383 26.6236 83.2254 26.6937 82.7443 26.6937ZM83.1136 25.33C83.5833 25.33 83.9848 25.2372 84.3182 25.0516C84.6553 24.866 84.911 24.6236 85.0852 24.3244C85.2633 24.0213 85.3523 23.6975 85.3523 23.3528V22.2278C85.2917 22.2884 85.1742 22.3452 85 22.3982C84.8295 22.4475 84.6345 22.491 84.4148 22.5289C84.1951 22.563 83.9811 22.5952 83.7727 22.6255C83.5644 22.652 83.3902 22.6747 83.25 22.6937C82.9205 22.7353 82.6193 22.8054 82.3466 22.9039C82.0777 23.0024 81.8617 23.1444 81.6989 23.33C81.5398 23.5119 81.4602 23.7543 81.4602 24.0573C81.4602 24.4778 81.6155 24.7959 81.9261 25.0119C82.2367 25.224 82.6326 25.33 83.1136 25.33ZM89.3139 26.5005V17.7732H91.0128V26.5005H89.3139ZM90.1719 16.4266C89.8764 16.4266 89.6226 16.3281 89.4105 16.1312C89.2022 15.9304 89.098 15.6918 89.098 15.4153C89.098 15.135 89.2022 14.8963 89.4105 14.6994C89.6226 14.4986 89.8764 14.3982 90.1719 14.3982C90.4673 14.3982 90.7192 14.4986 90.9276 14.6994C91.1397 14.8963 91.2457 15.135 91.2457 15.4153C91.2457 15.6918 91.1397 15.9304 90.9276 16.1312C90.7192 16.3281 90.4673 16.4266 90.1719 16.4266ZM94.9972 14.8641V26.5005H93.2983V14.8641H94.9972Z" fill="#C0C0C0"/>
<path d="M129.25 12.0005H117.25C117.051 12.0005 116.86 12.0795 116.72 12.2202C116.579 12.3608 116.5 12.5516 116.5 12.7505V16.5005H112.75C112.551 16.5005 112.36 16.5795 112.22 16.7202C112.079 16.8608 112 17.0516 112 17.2505V29.2505C112 29.4494 112.079 29.6402 112.22 29.7808C112.36 29.9215 112.551 30.0005 112.75 30.0005H124.75C124.949 30.0005 125.14 29.9215 125.28 29.7808C125.421 29.6402 125.5 29.4494 125.5 29.2505V25.5005H129.25C129.449 25.5005 129.64 25.4215 129.78 25.2808C129.921 25.1402 130 24.9494 130 24.7505V12.7505C130 12.5516 129.921 12.3608 129.78 12.2202C129.64 12.0795 129.449 12.0005 129.25 12.0005ZM124 28.5005H113.5V18.0005H124V28.5005ZM128.5 24.0005H125.5V17.2505C125.5 17.0516 125.421 16.8608 125.28 16.7202C125.14 16.5795 124.949 16.5005 124.75 16.5005H118V13.5005H128.5V24.0005Z" fill="#C0C0C0"/>
<line x1="104.4" y1="42.0122" x2="104.4" y2="1.00002" stroke="#262626" stroke-width="1.2"/>
</svg>
