<svg width="17" height="12" viewBox="0 0 17 12" fill="none" xmlns="http://www.w3.org/2000/svg">
<path d="M0.153442 1C0.153442 0.734784 0.258799 0.48043 0.446336 0.292893C0.633872 0.105357 0.888226 0 1.15344 0H15.1534C15.4187 0 15.673 0.105357 15.8605 0.292893C16.0481 0.48043 16.1534 0.734784 16.1534 1C16.1534 1.26522 16.0481 1.51957 15.8605 1.70711C15.673 1.89464 15.4187 2 15.1534 2H1.15344C0.888226 2 0.633872 1.89464 0.446336 1.70711C0.258799 1.51957 0.153442 1.26522 0.153442 1ZM0.153442 6C0.153442 5.73478 0.258799 5.48043 0.446336 5.29289C0.633872 5.10536 0.888226 5 1.15344 5H15.1534C15.4187 5 15.673 5.10536 15.8605 5.29289C16.0481 5.48043 16.1534 5.73478 16.1534 6C16.1534 6.26522 16.0481 6.51957 15.8605 6.70711C15.673 6.89464 15.4187 7 15.1534 7H1.15344C0.888226 7 0.633872 6.89464 0.446336 6.70711C0.258799 6.51957 0.153442 6.26522 0.153442 6ZM0.153442 11C0.153442 10.7348 0.258799 10.4804 0.446336 10.2929C0.633872 10.1054 0.888226 10 1.15344 10H15.1534C15.4187 10 15.673 10.1054 15.8605 10.2929C16.0481 10.4804 16.1534 10.7348 16.1534 11C16.1534 11.2652 16.0481 11.5196 15.8605 11.7071C15.673 11.8946 15.4187 12 15.1534 12H1.15344C0.888226 12 0.633872 11.8946 0.446336 11.7071C0.258799 11.5196 0.153442 11.2652 0.153442 11Z" fill="white"/>
</svg>
