
<svg  viewBox="0 0 116 50" fill="none" xmlns="http://www.w3.org/2000/svg">
<g filter="url(#filter0_d_1_494)">
<mask id="path-1-inside-1_1_494" fill="white">
<path d="M4 7C4 3.13401 7.13401 0 11 0H105C108.866 0 112 3.13401 112 7V35C112 38.866 108.866 42 105 42H11C7.13401 42 4 38.866 4 35V7Z"/>
</mask>
<path d="M4 7C4 3.13401 7.13401 0 11 0H105C108.866 0 112 3.13401 112 7V35C112 38.866 108.866 42 105 42H11C7.13401 42 4 38.866 4 35V7Z" fill="#3F21E6"/>
<path d="M4 7C4 2.47126 7.67126 -1.2 12.2 -1.2H103.8C108.329 -1.2 112 2.47126 112 7V7C112 3.79675 108.866 1.2 105 1.2H11C7.13401 1.2 4 3.79675 4 7V7ZM112 42H4H112ZM4 42V0V42ZM112 0V42V0Z" fill="#4134F3" mask="url(#path-1-inside-1_1_494)"/>
</g>
<rect width="95" height="24" transform="translate(11 9.00049)" fill="#3F21E6"/>
<path d="M12.2784 26.5005V14.8641H14.0341V19.9209H19.8352V14.8641H21.5966V26.5005H19.8352V21.4266H14.0341V26.5005H12.2784ZM24.017 26.5005V17.7732H25.7159V26.5005H24.017ZM24.875 16.4266C24.5795 16.4266 24.3258 16.3281 24.1136 16.1312C23.9053 15.9304 23.8011 15.6918 23.8011 15.4153C23.8011 15.135 23.9053 14.8963 24.1136 14.6994C24.3258 14.4986 24.5795 14.3982 24.875 14.3982C25.1705 14.3982 25.4223 14.4986 25.6307 14.6994C25.8428 14.8963 25.9489 15.135 25.9489 15.4153C25.9489 15.6918 25.8428 15.9304 25.6307 16.1312C25.4223 16.3281 25.1705 16.4266 24.875 16.4266ZM28.0014 26.5005V17.7732H29.6435V19.1596H29.7344C29.8935 18.6899 30.1738 18.3206 30.5753 18.0516C30.9806 17.7789 31.4389 17.6425 31.9503 17.6425C32.0563 17.6425 32.1813 17.6463 32.3253 17.6539C32.473 17.6615 32.5885 17.6709 32.6719 17.6823V19.3073C32.6037 19.2884 32.4825 19.2675 32.3082 19.2448C32.134 19.2183 31.9598 19.205 31.7855 19.205C31.384 19.205 31.026 19.2903 30.7116 19.4607C30.401 19.6274 30.1548 19.8603 29.973 20.1596C29.7912 20.455 29.7003 20.7922 29.7003 21.1709V26.5005H28.0014ZM37.5909 26.6766C36.7311 26.6766 35.9905 26.4929 35.3693 26.1255C34.7519 25.7543 34.2746 25.2334 33.9375 24.563C33.6042 23.8887 33.4375 23.099 33.4375 22.1937C33.4375 21.2997 33.6042 20.5119 33.9375 19.83C34.2746 19.1482 34.7443 18.616 35.3466 18.2334C35.9527 17.8509 36.661 17.6596 37.4716 17.6596C37.964 17.6596 38.4413 17.741 38.9034 17.9039C39.3655 18.0668 39.7803 18.3225 40.1477 18.6709C40.5152 19.0194 40.8049 19.4721 41.017 20.0289C41.2292 20.5819 41.3352 21.2543 41.3352 22.0459V22.6482H34.3977V21.3755H39.6705C39.6705 20.9285 39.5795 20.5327 39.3977 20.188C39.2159 19.8395 38.9602 19.5649 38.6307 19.3641C38.3049 19.1634 37.9223 19.063 37.483 19.063C37.0057 19.063 36.589 19.1804 36.233 19.4153C35.8807 19.6463 35.608 19.9494 35.4148 20.3244C35.2254 20.6956 35.1307 21.099 35.1307 21.5346V22.5289C35.1307 23.1122 35.233 23.6084 35.4375 24.0175C35.6458 24.4266 35.9356 24.7391 36.3068 24.955C36.678 25.1672 37.1117 25.2732 37.608 25.2732C37.9299 25.2732 38.2235 25.2278 38.4886 25.1369C38.7538 25.0422 38.983 24.902 39.1761 24.7164C39.3693 24.5308 39.517 24.3016 39.6193 24.0289L41.2273 24.3187C41.0985 24.7922 40.8674 25.2069 40.5341 25.563C40.2045 25.9153 39.7898 26.1899 39.2898 26.3869C38.7936 26.58 38.2273 26.6766 37.5909 26.6766ZM47.4545 26.5005V17.7732H49.0852V19.1937H49.1932C49.375 18.7126 49.6723 18.3376 50.0852 18.0687C50.4981 17.7959 50.9924 17.6596 51.5682 17.6596C52.1515 17.6596 52.6402 17.7959 53.0341 18.0687C53.4318 18.3414 53.7254 18.7164 53.9148 19.1937H54.0057C54.214 18.7278 54.5455 18.3565 55 18.08C55.4545 17.7997 55.9962 17.6596 56.625 17.6596C57.4167 17.6596 58.0625 17.9077 58.5625 18.4039C59.0663 18.9001 59.3182 19.6482 59.3182 20.6482V26.5005H57.6193V20.8073C57.6193 20.2164 57.4583 19.7884 57.1364 19.5232C56.8144 19.2581 56.4299 19.1255 55.983 19.1255C55.4299 19.1255 55 19.2959 54.6932 19.6369C54.3864 19.974 54.233 20.4077 54.233 20.938V26.5005H52.5398V20.6994C52.5398 20.2259 52.392 19.8452 52.0966 19.5573C51.8011 19.2694 51.4167 19.1255 50.9432 19.1255C50.6212 19.1255 50.3239 19.2107 50.0511 19.3812C49.7822 19.5478 49.5644 19.7808 49.3977 20.08C49.2348 20.3793 49.1534 20.7259 49.1534 21.1198V26.5005H47.4545ZM65.3565 26.6766C64.4967 26.6766 63.7562 26.4929 63.1349 26.1255C62.5175 25.7543 62.0402 25.2334 61.7031 24.563C61.3698 23.8887 61.2031 23.099 61.2031 22.1937C61.2031 21.2997 61.3698 20.5119 61.7031 19.83C62.0402 19.1482 62.5099 18.616 63.1122 18.2334C63.7183 17.8509 64.4266 17.6596 65.2372 17.6596C65.7296 17.6596 66.2069 17.741 66.669 17.9039C67.1312 18.0668 67.5459 18.3225 67.9134 18.6709C68.2808 19.0194 68.5705 19.4721 68.7827 20.0289C68.9948 20.5819 69.1009 21.2543 69.1009 22.0459V22.6482H62.1634V21.3755H67.4361C67.4361 20.9285 67.3452 20.5327 67.1634 20.188C66.9815 19.8395 66.7259 19.5649 66.3963 19.3641C66.0705 19.1634 65.688 19.063 65.2486 19.063C64.7713 19.063 64.3546 19.1804 63.9986 19.4153C63.6463 19.6463 63.3736 19.9494 63.1804 20.3244C62.991 20.6956 62.8963 21.099 62.8963 21.5346V22.5289C62.8963 23.1122 62.9986 23.6084 63.2031 24.0175C63.4115 24.4266 63.7012 24.7391 64.0724 24.955C64.4437 25.1672 64.8774 25.2732 65.3736 25.2732C65.6955 25.2732 65.9891 25.2278 66.2543 25.1369C66.5194 25.0422 66.7486 24.902 66.9418 24.7164C67.1349 24.5308 67.2827 24.3016 67.3849 24.0289L68.9929 24.3187C68.8641 24.7922 68.633 25.2069 68.2997 25.563C67.9702 25.9153 67.5554 26.1899 67.0554 26.3869C66.5592 26.58 65.9929 26.6766 65.3565 26.6766Z" fill="white"/>
<path d="M100 21.9985H95V26.9985C95 27.2638 94.8946 27.5181 94.7071 27.7056C94.5196 27.8932 94.2652 27.9985 94 27.9985C93.7348 27.9985 93.4804 27.8932 93.2929 27.7056C93.1054 27.5181 93 27.2638 93 26.9985V21.9985H88C87.7348 21.9985 87.4804 21.8932 87.2929 21.7056C87.1054 21.5181 87 21.2638 87 20.9985C87 20.7333 87.1054 20.479 87.2929 20.2914C87.4804 20.1039 87.7348 19.9985 88 19.9985H93V14.9985C93 14.7333 93.1054 14.479 93.2929 14.2914C93.4804 14.1039 93.7348 13.9985 94 13.9985C94.2652 13.9985 94.5196 14.1039 94.7071 14.2914C94.8946 14.479 95 14.7333 95 14.9985V19.9985H100C100.265 19.9985 100.52 20.1039 100.707 20.2914C100.895 20.479 101 20.7333 101 20.9985C101 21.2638 100.895 21.5181 100.707 21.7056C100.52 21.8932 100.265 21.9985 100 21.9985Z" fill="white"/>
<line x1="78.65" y1="42.0132" x2="78.65" y2="-0.00151062" stroke="#161616" stroke-width="1.2"/>
<defs>
<filter id="filter0_d_1_494" x="0" y="0" width="116" height="50" filterUnits="userSpaceOnUse" color-interpolation-filters="sRGB">
<feFlood flood-opacity="0" result="BackgroundImageFix"/>
<feColorMatrix in="SourceAlpha" type="matrix" values="0 0 0 0 0 0 0 0 0 0 0 0 0 0 0 0 0 0 127 0" result="hardAlpha"/>
<feOffset dy="4"/>
<feGaussianBlur stdDeviation="2"/>
<feComposite in2="hardAlpha" operator="out"/>
<feColorMatrix type="matrix" values="0 0 0 0 0 0 0 0 0 0 0 0 0 0 0 0 0 0 0.25 0"/>
<feBlend mode="normal" in2="BackgroundImageFix" result="effect1_dropShadow_1_494"/>
<feBlend mode="normal" in="SourceGraphic" in2="effect1_dropShadow_1_494" result="shape"/>
</filter>
</defs>
</svg>
