
<svg  viewBox="0 0 181 27" fill="none" xmlns="http://www.w3.org/2000/svg">
<rect x="0.5" y="1" width="180" height="25" rx="12.5" fill="#161616"/>
<rect x="0.5" y="1" width="180" height="25" rx="12.5" stroke="#262626"/>
<circle cx="21.5" cy="13.5" r="4.5" fill="#3F21E6"/>
<path d="M37.8374 18.5H36.3232L39.7255 9.04545H41.3736L44.7759 18.5H43.2617L40.5888 10.7628H40.5149L37.8374 18.5ZM38.0913 14.7976H43.0032V15.9979H38.0913V14.7976ZM45.9774 9.04545L48.6088 16.7457H48.7149L51.3463 9.04545H52.8882L49.4859 18.5H47.8378L44.4355 9.04545H45.9774ZM54.0874 18.5H52.5732L55.9755 9.04545H57.6236L61.0259 18.5H59.5117L56.8388 10.7628H56.7649L54.0874 18.5ZM54.3413 14.7976H59.2532V15.9979H54.3413V14.7976ZM63.8177 9.04545V18.5H62.3912V9.04545H63.8177ZM65.8952 18.5V9.04545H67.3216V17.272H71.6057V18.5H65.8952ZM74.5141 18.5H72.9999L76.4023 9.04545H78.0503L81.4527 18.5H79.9385L77.2655 10.7628H77.1917L74.5141 18.5ZM74.768 14.7976H79.68V15.9979H74.768V14.7976ZM82.818 18.5V9.04545H86.2804C86.9513 9.04545 87.5068 9.15625 87.9469 9.37784C88.387 9.59635 88.7163 9.89335 88.9348 10.2688C89.1534 10.6412 89.2626 11.0613 89.2626 11.5291C89.2626 11.9231 89.1903 12.2554 89.0456 12.5263C88.901 12.794 88.7071 13.0095 88.464 13.1726C88.2239 13.3326 87.9592 13.4496 87.6699 13.5234V13.6158C87.9838 13.6312 88.2901 13.7327 88.5886 13.9205C88.8902 14.1051 89.1395 14.3683 89.3365 14.7099C89.5334 15.0515 89.6319 15.467 89.6319 15.9563C89.6319 16.4395 89.5181 16.8735 89.2903 17.2582C89.0656 17.6398 88.7179 17.9429 88.247 18.1676C87.7761 18.3892 87.1744 18.5 86.4419 18.5H82.818ZM84.2445 17.2766H86.3034C86.9867 17.2766 87.476 17.1443 87.7715 16.8796C88.0669 16.6149 88.2147 16.2841 88.2147 15.8871C88.2147 15.5885 88.1393 15.3146 87.9885 15.0653C87.8377 14.8161 87.6222 14.6175 87.3422 14.4698C87.0652 14.3221 86.7359 14.2482 86.3542 14.2482H84.2445V17.2766ZM84.2445 13.1357H86.1557C86.4758 13.1357 86.7636 13.0741 87.019 12.951C87.2775 12.8279 87.4822 12.6555 87.633 12.4339C87.7869 12.2093 87.8638 11.9446 87.8638 11.6399C87.8638 11.2491 87.7269 10.9213 87.4529 10.6566C87.179 10.3919 86.7589 10.2596 86.1926 10.2596H84.2445V13.1357ZM91.3239 18.5V9.04545H92.7504V17.272H97.0344V18.5H91.3239ZM98.6618 18.5V9.04545H104.589V10.2734H100.088V13.1541H104.28V14.3775H100.088V17.272H104.645V18.5H98.6618ZM109.935 18.5V9.04545H115.798V10.2734H111.362V13.1541H115.378V14.3775H111.362V18.5H109.935ZM125.765 13.7727C125.765 14.7822 125.58 15.6501 125.211 16.3764C124.842 17.0997 124.336 17.6567 123.692 18.0476C123.052 18.4354 122.324 18.6293 121.509 18.6293C120.69 18.6293 119.959 18.4354 119.316 18.0476C118.676 17.6567 118.171 17.0981 117.802 16.3718C117.432 15.6455 117.248 14.7791 117.248 13.7727C117.248 12.7633 117.432 11.8969 117.802 11.1737C118.171 10.4473 118.676 9.89027 119.316 9.50249C119.959 9.11162 120.69 8.91619 121.509 8.91619C122.324 8.91619 123.052 9.11162 123.692 9.50249C124.336 9.89027 124.842 10.4473 125.211 11.1737C125.58 11.8969 125.765 12.7633 125.765 13.7727ZM124.352 13.7727C124.352 13.0033 124.228 12.3555 123.979 11.8292C123.732 11.2998 123.394 10.8997 122.963 10.6289C122.535 10.355 122.05 10.218 121.509 10.218C120.964 10.218 120.478 10.355 120.05 10.6289C119.622 10.8997 119.284 11.2998 119.034 11.8292C118.788 12.3555 118.665 13.0033 118.665 13.7727C118.665 14.5421 118.788 15.1915 119.034 15.7209C119.284 16.2472 119.622 16.6473 120.05 16.9212C120.478 17.192 120.964 17.3274 121.509 17.3274C122.05 17.3274 122.535 17.192 122.963 16.9212C123.394 16.6473 123.732 16.2472 123.979 15.7209C124.228 15.1915 124.352 14.5421 124.352 13.7727ZM127.544 18.5V9.04545H130.914C131.646 9.04545 132.254 9.17164 132.737 9.42401C133.223 9.67637 133.587 10.0257 133.827 10.4719C134.067 10.9151 134.187 11.4276 134.187 12.0092C134.187 12.5878 134.065 13.0972 133.822 13.5373C133.582 13.9743 133.219 14.3144 132.733 14.5575C132.249 14.8007 131.641 14.9222 130.909 14.9222H128.356V13.6942H130.78C131.241 13.6942 131.617 13.6281 131.906 13.4957C132.199 13.3634 132.412 13.171 132.548 12.9187C132.683 12.6663 132.751 12.3632 132.751 12.0092C132.751 11.6522 132.682 11.3429 132.543 11.0813C132.408 10.8197 132.194 10.6197 131.902 10.4812C131.612 10.3396 131.232 10.2688 130.761 10.2688H128.97V18.5H127.544ZM132.211 14.2344L134.547 18.5H132.922L130.632 14.2344H132.211ZM143.038 9.04545H144.46V15.7486C144.46 16.3549 144.339 16.8735 144.099 17.3043C143.862 17.7352 143.529 18.0645 143.098 18.2923C142.667 18.5169 142.162 18.6293 141.583 18.6293C141.051 18.6293 140.572 18.5323 140.148 18.3384C139.726 18.1445 139.392 17.8629 139.146 17.4936C138.903 17.1212 138.781 16.6688 138.781 16.1364H140.199C140.199 16.398 140.259 16.6242 140.379 16.815C140.502 17.0058 140.669 17.1551 140.882 17.2628C141.097 17.3674 141.343 17.4197 141.62 17.4197C141.922 17.4197 142.177 17.3567 142.387 17.2305C142.599 17.1012 142.761 16.9119 142.871 16.6626C142.982 16.4134 143.038 16.1087 143.038 15.7486V9.04545ZM154.748 13.7727C154.748 14.7822 154.564 15.6501 154.195 16.3764C153.825 17.0997 153.319 17.6567 152.676 18.0476C152.036 18.4354 151.308 18.6293 150.492 18.6293C149.673 18.6293 148.943 18.4354 148.299 18.0476C147.659 17.6567 147.154 17.0981 146.785 16.3718C146.416 15.6455 146.231 14.7791 146.231 13.7727C146.231 12.7633 146.416 11.8969 146.785 11.1737C147.154 10.4473 147.659 9.89027 148.299 9.50249C148.943 9.11162 149.673 8.91619 150.492 8.91619C151.308 8.91619 152.036 9.11162 152.676 9.50249C153.319 9.89027 153.825 10.4473 154.195 11.1737C154.564 11.8969 154.748 12.7633 154.748 13.7727ZM153.336 13.7727C153.336 13.0033 153.211 12.3555 152.962 11.8292C152.716 11.2998 152.377 10.8997 151.946 10.6289C151.518 10.355 151.034 10.218 150.492 10.218C149.947 10.218 149.461 10.355 149.033 10.6289C148.605 10.8997 148.267 11.2998 148.018 11.8292C147.771 12.3555 147.648 13.0033 147.648 13.7727C147.648 14.5421 147.771 15.1915 148.018 15.7209C148.267 16.2472 148.605 16.6473 149.033 16.9212C149.461 17.192 149.947 17.3274 150.492 17.3274C151.034 17.3274 151.518 17.192 151.946 16.9212C152.377 16.6473 152.716 16.2472 152.962 15.7209C153.211 15.1915 153.336 14.5421 153.336 13.7727ZM156.527 18.5V9.04545H159.989C160.66 9.04545 161.216 9.15625 161.656 9.37784C162.096 9.59635 162.425 9.89335 162.644 10.2688C162.862 10.6412 162.972 11.0613 162.972 11.5291C162.972 11.9231 162.899 12.2554 162.755 12.5263C162.61 12.794 162.416 13.0095 162.173 13.1726C161.933 13.3326 161.668 13.4496 161.379 13.5234V13.6158C161.693 13.6312 161.999 13.7327 162.298 13.9205C162.599 14.1051 162.848 14.3683 163.045 14.7099C163.242 15.0515 163.341 15.467 163.341 15.9563C163.341 16.4395 163.227 16.8735 162.999 17.2582C162.775 17.6398 162.427 17.9429 161.956 18.1676C161.485 18.3892 160.883 18.5 160.151 18.5H156.527ZM157.953 17.2766H160.012C160.696 17.2766 161.185 17.1443 161.48 16.8796C161.776 16.6149 161.924 16.2841 161.924 15.8871C161.924 15.5885 161.848 15.3146 161.697 15.0653C161.547 14.8161 161.331 14.6175 161.051 14.4698C160.774 14.3221 160.445 14.2482 160.063 14.2482H157.953V17.2766ZM157.953 13.1357H159.865C160.185 13.1357 160.473 13.0741 160.728 12.951C160.987 12.8279 161.191 12.6555 161.342 12.4339C161.496 12.2093 161.573 11.9446 161.573 11.6399C161.573 11.2491 161.436 10.9213 161.162 10.6566C160.888 10.3919 160.468 10.2596 159.902 10.2596H157.953V13.1357Z" fill="#C0C0C0"/>
</svg>
